<svg xmlns="http://www.w3.org/2000/svg" version="1.1" xmlns:xlink="http://www.w3.org/1999/xlink" xmlns:svgjs="http://svgjs.dev/svgjs" width="248" height="275"><svg width="248" height="275" viewBox="0 0 248 275" fill="none" xmlns="http://www.w3.org/2000/svg" xmlns:bx="https://boxy-svg.com">
  <defs>
    <clipPath id="SvgjsClipPath1039">
      <rect width="2057.68" height="2279.43" fill="white" x="-366.9" y="-1378.5"></rect>
    </clipPath>
  </defs>
  <g id="SvgjsG1038" transform="matrix(1.480941, 0.509928, -0.509928, 1.480941, 13.709426, -39.138153)" style="transform-origin: 147.169px 151.195px;">
    <bx:title>Bun Logo</bx:title>
    <g>
      <path id="SvgjsPath1037" d="M 191.831 130.53 C 191.601 130.286 191.357 130.042 191.112 129.812 C 190.868 129.582 190.638 129.323 190.394 129.094 C 190.15 128.864 189.92 128.605 189.676 128.375 C 189.432 128.145 189.202 127.887 188.958 127.657 C 188.713 127.427 188.484 127.169 188.239 126.939 C 187.995 126.709 187.765 126.45 187.521 126.221 C 187.277 125.991 187.047 125.732 186.803 125.502 C 193.928 132.505 198.011 142.031 198.166 152.02 C 198.166 175.823 174.004 195.188 144.296 195.188 C 127.662 195.188 112.779 189.111 102.882 179.587 L 103.6 180.305 L 104.318 181.024 L 105.036 181.742 L 105.755 182.46 L 106.473 183.178 L 107.191 183.897 L 107.909 184.615 C 117.793 194.541 133.005 200.934 150.042 200.934 C 179.75 200.934 203.912 181.569 203.912 157.838 C 203.912 147.696 199.545 138.086 191.831 130.53 Z" style=""></path>
      <g id="SvgjsG1036" transform="matrix(1.436515, 0, 0, 1.436515, 89.708595, 100.736786)" style="">
        <path id="SvgjsPath1035" d="M73,35.7c0,15.21-15.67,27.54-35,27.54S3,50.91,3,35.7C3,26.27,9,17.94,18.22,13S33.18,3,38,3s8.94,4.13,19.78,10C67,17.94,73,26.27,73,35.7Z" style="fill:#fbf0df"></path>
        <path id="SvgjsPath1034" data-name="Bottom Shadow" d="M73,35.7a21.67,21.67,0,0,0-.8-5.78c-2.73,33.3-43.35,34.9-59.32,24.94A40,40,0,0,0,38,63.24C57.3,63.24,73,50.89,73,35.7Z" style="fill:#f6dece"></path>
        <path id="SvgjsPath1033" data-name="Light Shine" d="M24.53,11.17C29,8.49,34.94,3.46,40.78,3.45A9.29,9.29,0,0,0,38,3c-2.42,0-5,1.25-8.25,3.13-1.13.66-2.3,1.39-3.54,2.15-2.33,1.44-5,3.07-8,4.7C8.69,18.13,3,26.62,3,35.7c0,.4,0,.8,0,1.19C9.06,15.48,20.07,13.85,24.53,11.17Z" style="fill:#fffefc"></path>
        <path id="SvgjsPath1032" d="M35.12,5.53A16.41,16.41,0,0,1,29.49,18c-.28.25-.06.73.3.59,3.37-1.31,7.92-5.23,6-13.14C35.71,5,35.12,5.12,35.12,5.53Zm2.27,0A16.24,16.24,0,0,1,39,19c-.12.35.31.65.55.36C41.74,16.56,43.65,11,37.93,5,37.64,4.74,37.19,5.14,37.39,5.49Zm2.76-.17A16.42,16.42,0,0,1,47,17.12a.33.33,0,0,0,.65.11c.92-3.49.4-9.44-7.17-12.53C40.08,4.54,39.82,5.08,40.15,5.32ZM21.69,15.76a16.94,16.94,0,0,0,10.47-9c.18-.36.75-.22.66.18-1.73,8-7.52,9.67-11.12,9.45C21.32,16.4,21.33,15.87,21.69,15.76Z" style="fill:#ccbea7;fill-rule:evenodd"></path>
        <path id="SvgjsPath1031" d="M38,65.75C17.32,65.75.5,52.27.5,35.7c0-10,6.18-19.33,16.53-24.92,3-1.6,5.57-3.21,7.86-4.62,1.26-.78,2.45-1.51,3.6-2.19C32,1.89,35,.5,38,.5s5.62,1.2,8.9,3.14c1,.57,2,1.19,3.07,1.87,2.49,1.54,5.3,3.28,9,5.27C69.32,16.37,75.5,25.69,75.5,35.7,75.5,52.27,58.68,65.75,38,65.75ZM38,3c-2.42,0-5,1.25-8.25,3.13-1.13.66-2.3,1.39-3.54,2.15-2.33,1.44-5,3.07-8,4.7C8.69,18.13,3,26.62,3,35.7,3,50.89,18.7,63.25,38,63.25S73,50.89,73,35.7C73,26.62,67.31,18.13,57.78,13,54,11,51.05,9.12,48.66,7.64c-1.09-.67-2.09-1.29-3-1.84C42.63,4,40.42,3,38,3Z"></path>
      </g>
      <g id="SvgjsG1030" transform="matrix(1.436515, 0, 0, 1.436515, 89.708595, 100.736786)" style="">
        <g id="SvgjsG1029" data-name="Background">
          <path d="M45.05,43a8.93,8.93,0,0,1-2.92,4.71,6.81,6.81,0,0,1-4,1.88A6.84,6.84,0,0,1,34,47.71,8.93,8.93,0,0,1,31.12,43a.72.72,0,0,1,.8-.81H44.26A.72.72,0,0,1,45.05,43Z" style="fill:#b71422"></path>
        </g>
        <g id="SvgjsG1028">
          <path id="SvgjsPath1027" data-name="Background" d="M34,47.79a6.91,6.91,0,0,0,4.12,1.9,6.91,6.91,0,0,0,4.11-1.9,10.63,10.63,0,0,0,1-1.07,6.83,6.83,0,0,0-4.9-2.31,6.15,6.15,0,0,0-5,2.78C33.56,47.4,33.76,47.6,34,47.79Z" style="fill:#ff6164"></path>
          <path id="SvgjsPath1026" data-name="Outline" d="M34.16,47a5.36,5.36,0,0,1,4.19-2.08,6,6,0,0,1,4,1.69c.23-.25.45-.51.66-.77a7,7,0,0,0-4.71-1.93,6.36,6.36,0,0,0-4.89,2.36A9.53,9.53,0,0,0,34.16,47Z"></path>
        </g>
        <path id="SvgjsPath1025" data-name="Outline" d="M38.09,50.19a7.42,7.42,0,0,1-4.45-2,9.52,9.52,0,0,1-3.11-5.05,1.2,1.2,0,0,1,.26-1,1.41,1.41,0,0,1,1.13-.51H44.26a1.44,1.44,0,0,1,1.13.51,1.19,1.19,0,0,1,.25,1h0a9.52,9.52,0,0,1-3.11,5.05A7.42,7.42,0,0,1,38.09,50.19Zm-6.17-7.4c-.16,0-.2.07-.21.09a8.29,8.29,0,0,0,2.73,4.37A6.23,6.23,0,0,0,38.09,49a6.28,6.28,0,0,0,3.65-1.73,8.3,8.3,0,0,0,2.72-4.37.21.21,0,0,0-.2-.09Z"></path>
      </g>
      <g id="SvgjsG1024" transform="matrix(1.436515, 0, 0, 1.436515, 89.708595, 100.736786)" style="">
        <ellipse id="SvgjsEllipse1023" data-name="Right Blush" cx="53.22" cy="40.18" rx="5.85" ry="3.44" style="fill:#febbd0"></ellipse>
        <ellipse id="SvgjsEllipse1022" data-name="Left Bluch" cx="22.95" cy="40.18" rx="5.85" ry="3.44" style="fill:#febbd0"></ellipse>
        <path id="SvgjsPath1021" d="M25.7,38.8a5.51,5.51,0,1,0-5.5-5.51A5.51,5.51,0,0,0,25.7,38.8Zm24.77,0A5.51,5.51,0,1,0,45,33.29,5.5,5.5,0,0,0,50.47,38.8Z" style="fill-rule:evenodd" fill="black"></path>
        <path id="SvgjsPath1020" d="M24,33.64a2.07,2.07,0,1,0-2.06-2.07A2.07,2.07,0,0,0,24,33.64Zm24.77,0a2.07,2.07,0,1,0-2.06-2.07A2.07,2.07,0,0,0,48.75,33.64Z" style="fill:#fff;fill-rule:evenodd"></path>
      </g>
    </g>
  </g>
  <path d="M 91.06 225.6 C 94.092 233.936 104.322 238.483 104.322 238.483" stroke="#3E7B28" stroke-opacity="0.55" stroke-width="3.5942" stroke-linecap="round" clip-path="url(#clip0_553_1862)" style=""></path>
  <path d="M 63.401 137.697 L 70.979 130.876" stroke="#3E7B28" stroke-opacity="0.55" stroke-width="3.5942" stroke-linecap="round" clip-path="url(#clip0_553_1862)" style=""></path>
  <path d="M 69.084 153.61 L 80.072 156.262" stroke="#3E7B28" stroke-opacity="0.55" stroke-width="3.5942" stroke-linecap="round" clip-path="url(#clip0_553_1862)" style=""></path>
  <path d="M 53.929 206.656 L 62.265 202.109" stroke="#3E7B28" stroke-opacity="0.55" stroke-width="3.5942" stroke-linecap="round" clip-path="url(#clip0_553_1862)" style=""></path>
  <path d="M 59.991 227.495 L 69.843 230.147" stroke="#3E7B28" stroke-opacity="0.55" stroke-width="3.5942" stroke-linecap="round" clip-path="url(#clip0_553_1862)" style=""></path>
  <path d="M 15.851 200.036 L 9.63 178.842 C 9.303 177.726 10.527 176.796 11.514 177.413 L 110.255 239.012 C 112.568 240.455 112.65 243.794 110.41 245.349 L 101.841 251.3 C 96.708 254.865 90.059 255.485 84.425 252.779 C 58.531 240.346 42.618 229.424 20.341 207.561 C 18.225 205.484 16.686 202.882 15.851 200.036 Z" fill="#4DC3FF" stroke="black" stroke-width="4" clip-path="url(#clip0_553_1862)" style=""></path>
  <path d="M 29.707 166.742 L 35.839 151.863 C 36.722 149.72 39.781 149.795 40.56 151.977 L 46.748 169.312 C 47.408 171.165 45.798 173.029 43.87 172.645 L 31.551 170.187 C 29.988 169.875 29.1 168.215 29.707 166.742 Z" fill="#FFA901" stroke="black" stroke-width="4" clip-path="url(#clip0_553_1862)" style=""></path>
  <path d="M 67.656 153.477 L 104.508 126.45 C 110.129 122.327 118.083 126.031 118.474 132.991 C 120.679 172.283 119.752 198.951 115.588 237.028 C 114.902 243.296 108.028 246.793 102.556 243.66 C 67.618 223.654 44.228 207.782 11.532 182.481 C 5.694 177.964 7.696 168.724 14.87 166.984 L 64.508 154.942 C 65.643 154.666 66.713 154.168 67.656 153.477 Z" fill="#BD34FE" stroke="black" stroke-width="4" clip-path="url(#clip0_553_1862)" style=""></path>
  <path d="M 38.748 148.265 C 51.05 140.05 72.094 126.108 80.314 121.04 C 81.794 120.127 83.583 121.058 83.789 122.785 L 86.268 143.61 C 86.471 145.32 88.286 146.331 89.848 145.605 L 97.436 142.075 C 99.278 141.219 101.328 142.773 100.999 144.778 L 91.436 203.238 C 91.06 205.539 88.034 206.149 86.796 204.172 L 78.449 190.851 C 77.619 189.526 75.799 189.264 74.628 190.299 L 71.661 192.923 C 70.38 194.057 68.365 193.618 67.672 192.051 L 62.13 179.526 C 61.437 177.962 59.422 177.521 58.14 178.656 L 55.46 181.027 C 54.198 182.143 52.217 181.736 51.497 180.215 L 37.876 151.444 C 37.34 150.311 37.705 148.961 38.748 148.265 Z" fill="#FFD32B" stroke="black" stroke-width="4" clip-path="url(#clip0_553_1862)" style=""></path>
</svg><style>@media (prefers-color-scheme: light) { :root { filter: none; } }
@media (prefers-color-scheme: dark) { :root { filter: none; } }
</style></svg>